<?xml version="1.0" standalone="no"?>
<!DOCTYPE svg PUBLIC "-//W3C//DTD SVG 20010904//EN"
 "http://www.w3.org/TR/2001/REC-SVG-20010904/DTD/svg10.dtd">
<svg version="1.0" xmlns="http://www.w3.org/2000/svg"
 width="512.000000pt" height="512.000000pt" viewBox="0 0 512.000000 512.000000"
 preserveAspectRatio="xMidYMid meet">
<metadata>
Created by potrace 1.14, written by Peter Selinger 2001-2017
</metadata>
<g transform="translate(0.000000,512.000000) scale(0.100000,-0.100000)"
fill="#000000" stroke="none">
<path d="M1000 4796 c-26 -10 -57 -42 -132 -142 -54 -71 -185 -243 -291 -381
-105 -139 -201 -265 -212 -281 -11 -15 -90 -120 -176 -233 -86 -113 -164 -220
-174 -238 -18 -37 -16 -91 5 -131 11 -21 378 -483 500 -630 21 -25 86 -106
145 -180 59 -74 115 -144 124 -155 9 -11 171 -213 361 -450 189 -236 347 -432
350 -435 3 -3 41 -50 84 -105 44 -55 82 -102 85 -105 3 -3 22 -25 41 -50 40
-52 50 -64 83 -105 14 -16 167 -208 341 -425 328 -409 357 -440 426 -440 60 0
102 38 257 230 82 102 156 194 165 205 22 26 723 900 757 943 14 18 33 42 43
53 29 36 374 465 453 565 17 21 53 66 80 100 28 34 64 79 80 100 17 21 42 52
56 69 14 16 119 147 234 290 114 143 217 271 229 285 11 14 55 68 96 120 41
52 77 97 81 100 13 11 27 69 25 108 -2 36 -19 63 -137 219 -74 98 -136 180
-139 183 -3 3 -25 32 -50 65 -24 33 -50 66 -56 75 -7 8 -28 35 -46 60 -19 25
-111 146 -204 270 -94 124 -203 268 -243 320 -39 53 -88 105 -109 117 l-37 23
-1530 -1 c-1198 0 -1538 -3 -1565 -13z m1243 -310 c-10 -13 -139 -185 -286
-381 -148 -196 -270 -355 -272 -353 -3 2 -89 174 -193 381 l-189 377 479 0
480 0 -19 -24z m1567 17 c0 -4 -84 -175 -187 -381 l-187 -374 -26 30 c-14 16
-143 187 -288 381 l-262 351 475 0 c261 0 475 -3 475 -7z m-946 -498 l296
-395 -600 0 -600 0 296 395 c163 217 300 395 304 395 4 0 141 -178 304 -395z
m-1637 -15 l190 -380 -479 0 c-263 0 -478 2 -478 5 0 3 15 25 33 48 17 24 59
79 92 123 32 43 64 84 70 90 5 7 91 120 190 252 99 133 183 241 186 241 3 1
91 -170 196 -379z m3148 8 c154 -204 282 -375 283 -379 2 -5 -210 -9 -472 -9
-262 0 -476 3 -476 7 0 13 373 753 379 752 3 0 132 -167 286 -371z m-2804
-760 c11 -40 118 -395 236 -788 118 -393 219 -728 223 -745 4 -16 31 -106 60
-200 85 -279 99 -329 96 -332 -2 -3 -136 160 -269 327 -111 140 -293 366 -297
370 -3 3 -59 73 -126 155 -66 83 -275 343 -464 579 -190 235 -356 443 -370
461 -62 81 -185 231 -194 237 -6 4 235 8 536 8 l547 0 22 -72z m1679 45 c-9
-26 -38 -124 -142 -473 -22 -74 -76 -254 -120 -400 -44 -146 -104 -348 -135
-450 -30 -102 -79 -264 -108 -360 -29 -96 -81 -271 -116 -387 -34 -117 -65
-213 -69 -213 -3 0 -52 156 -109 348 -57 191 -112 374 -122 407 -117 385 -185
612 -197 655 -5 19 -32 109 -60 200 -27 91 -54 181 -60 200 -5 19 -32 109 -60
200 -27 91 -55 181 -60 200 -6 19 -15 50 -21 68 l-10 32 699 0 699 0 -9 -27z
m1405 19 c-6 -4 -92 -108 -190 -232 -99 -124 -182 -227 -186 -230 -3 -3 -131
-162 -285 -355 -153 -192 -285 -356 -291 -363 -7 -7 -34 -41 -60 -75 -26 -34
-50 -64 -53 -67 -3 -3 -42 -50 -86 -105 -43 -55 -81 -102 -84 -105 -3 -3 -50
-61 -105 -130 -55 -69 -105 -132 -112 -140 -7 -8 -46 -58 -88 -110 -132 -164
-139 -173 -163 -199 l-23 -26 7 25 c4 14 90 300 191 635 101 336 185 617 187
626 2 9 57 191 121 405 65 214 122 404 127 422 l9 32 547 0 c301 0 542 -4 537
-8z"/>
</g>
</svg>
